<?xml version="1.0" encoding="utf-8"?>
<!-- Generator: Adobe Illustrator 24.0.2, SVG Export Plug-In . SVG Version: 6.00 Build 0)  -->
<svg version="1.1" xmlns="http://www.w3.org/2000/svg" xmlns:xlink="http://www.w3.org/1999/xlink" x="0px" y="0px"
	 viewBox="0 0 556 556" style="enable-background:new 0 0 556 556;" xml:space="preserve">
<style type="text/css">
	.st0{display:none;}
	.st1{display:inline;fill:none;}
	.st2{fill:none;}
	.st3{display:inline;}
	.st4{fill:none;stroke:#5D5D5D;stroke-width:4;stroke-miterlimit:10;}
	.st5{fill:#308EBA;stroke:#5D5D5D;stroke-width:4;stroke-miterlimit:10;}
	.st6{fill:none;stroke:#5D5D5D;stroke-width:5;stroke-miterlimit:10;}
	.st7{display:inline;fill:#E44546;stroke:#5D5D5D;stroke-width:5;stroke-miterlimit:10;}
	.st8{fill:#FFFFFF;stroke:#3A3A3A;stroke-width:4;stroke-miterlimit:10;}
	.st9{fill:#056B9A;stroke:#3A3A3A;stroke-width:4;stroke-miterlimit:10;}
	.st10{fill:#F0F0F0;stroke:#3A3A3A;stroke-width:5;stroke-miterlimit:10;}
	.st11{fill:#E44546;stroke:#3A3A3A;stroke-width:5;stroke-miterlimit:10;}
	.st12{fill:none;stroke:#3A3A3A;stroke-width:2;stroke-miterlimit:10;}
	.st13{fill:#F0F0F0;stroke:#3A3A3A;stroke-width:2;stroke-miterlimit:10;}
	.st14{fill:none;stroke:#3A3A3A;stroke-miterlimit:10;}
	.st15{fill:#3A3A3A;}
	.st16{fill:none;stroke:#000000;stroke-miterlimit:10;}
</style>
<g id="Capa_3" class="st0">
	<path class="st1" d="M389,242.5c0,10.2-2.1,20-6,28.9c-7.3,16.8-20.6,30.8-37.6,39.9c-13.2,7.1-28.7,11.1-45.2,11.1
		s-31.9-4-45.2-11.1c-17-9.1-30.4-23.1-37.6-39.9c-3.9-9-6-18.7-6-28.9c0-34.8,24.7-64.3,59.1-75.3l0.1-0.2V89.3
		c-5.5,0-9.9-5-9.9-11.1s4.4-11.1,9.9-11.1h59.2c5.4,0,9.9,5,9.9,11.1s-4.4,11.1-9.9,11.1V167l0.1,0.2
		C364.3,178.2,389,207.7,389,242.5z"/>
	<circle class="st1" cx="244.7" cy="194.8" r="11.1"/>
	<circle class="st1" cx="366.8" cy="278" r="11.1"/>
	<path class="st2" d="M373.2,244.1c0,8.5-1.8,16.7-5,24.1c-6,14-17.1,25.7-31.2,33.3c-11,5.9-23.8,9.3-37.4,9.3s-26.5-3.4-37.4-9.3
		c-14.1-7.6-25.2-19.3-31.2-33.3c-3.2-7.5-5-15.6-5-24.1c0-29,20.5-53.7,49-62.8l0.1-0.1v-64.8c-4.5,0-8.2-4.1-8.2-9.3
		s3.7-9.3,8.2-9.3h49.1c4.5,0,8.2,4.1,8.2,9.3s-3.7,9.3-8.2,9.3v64.8l0.1,0.1C352.7,190.4,373.2,215.1,373.2,244.1z"/>
	<ellipse class="st1" cx="300.2" cy="243.6" rx="77.7" ry="67.7"/>
	<ellipse class="st1" cx="300.3" cy="251.3" rx="88.3" ry="67.7"/>
</g>
<g id="matraz" class="st0">
	<g class="st3">
		<g>
			<path class="st2" d="M400.1,289.1c0,12.3-9.9,22.2-22.2,22.2H222.5c-12.3,0-22.2-9.9-22.2-22.2c0-4.1,1.1-7.9,3-11.1h0l63.6-111
				V89.3c-6.1,0-11.1-5-11.1-11.1s5-11.1,11.1-11.1h66.6c6.1,0,11.1,5,11.1,11.1s-5,11.1-11.1,11.1V167l63.4,110.6l0.2,0.4h0l0,0
				C399,281.3,400.1,285.1,400.1,289.1z"/>
		</g>
		<path class="st2" d="M377.2,281.3c0,10.4-7.6,18.9-16.9,18.9H241.4c-9.3,0-16.9-8.5-16.9-18.9c0-3.5,0.8-6.7,2.3-9.5l14.9-29.4
			l8.3-16.4l8.2-16.2c3.7,1.7,7.7,2.6,11.9,2.6c9.5,0,18-4.7,23.6-12.1h0.1c0.2-0.3,0.4-0.6,0.6-0.9c0.3-0.4,0.5-0.7,0.8-1.1
			c5.6-7.9,14.4-13,24.3-13c3.9,0,7.7,0.8,11.2,2.3l19.1,36.3l0.9,1.7l8.5,16.3l15.5,29.5l0.2,0.5
			C376.4,274.6,377.2,277.8,377.2,281.3z"/>
	</g>
</g>
<g id="original" class="st0">
	
		<image style="display:inline;overflow:visible;" width="469" height="347" xlink:href="WhatsApp Image 2022-07-15 at 6.19.32 PM.jpeg"  transform="matrix(1.1192 0 0 1.1096 3.5444 44.9)">
	</image>
</g>
<g id="Capa_6" class="st0">
	<g class="st3">
		<path class="st4" d="M293,222.2c0,7.9-1.5,15.4-4.2,22.4c-5.1,13-14.5,23.8-26.5,30.9c-9.3,5.5-20.2,8.6-31.8,8.6
			s-22.5-3.1-31.8-8.6c-12-7-21.4-17.9-26.5-30.9c-2.7-6.9-4.2-14.5-4.2-22.4c0-26.9,17.3-49.8,41.6-58.3l0.1-0.1v-60.1
			c-3.8,0-6.9-3.8-6.9-8.6s3.1-8.6,6.9-8.6h41.6c3.8,0,6.9,3.8,6.9,8.6s-3.1,8.6-6.9,8.6v60.1l0.1,0.1
			C275.7,172.4,293,195.3,293,222.2z"/>
		<path class="st5" d="M285.2,223.1c0,28.9-24.5,52.4-54.6,52.4c-30.2,0-54.6-23.5-54.6-52.4c0-11.5,3.9-22.1,10.4-30.7
			c11.3-9.7,26.9-15.7,44.3-15.7c17.2,0,32.8,5.9,44.1,15.5C281.3,200.8,285.2,211.5,285.2,223.1z"/>
	</g>
</g>
<g id="copia_seguridad_-_matraz" class="st0">
	<g class="st3">
		<path class="st6" d="M400.1,289.1c0,12.3-9.9,22.2-22.2,22.2H222.5c-12.3,0-22.2-9.9-22.2-22.2c0-4.1,1.1-7.9,3-11.1h0l63.6-111
			V89.3c-6.1,0-11.1-5-11.1-11.1s5-11.1,11.1-11.1h66.6c6.1,0,11.1,5,11.1,11.1s-5,11.1-11.1,11.1V167l63.4,110.6l0.2,0.4h0l0,0
			C399,281.3,400.1,285.1,400.1,289.1z"/>
	</g>
	<path class="st7" d="M377.2,281.3c0,10.4-7.6,18.9-16.9,18.9H241.4c-9.3,0-16.9-8.5-16.9-18.9c0-3.5,0.8-6.7,2.3-9.5l14.9-29.4
		l8.3-16.4l8.2-16.2c3.7,1.7,7.7,2.6,11.9,2.6c9.5,0,18-4.7,23.6-12.1h0.1c0.2-0.3,0.4-0.6,0.6-0.9c0.3-0.4,0.5-0.7,0.8-1.1
		c5.6-7.9,14.4-13,24.3-13c3.9,0,7.7,0.8,11.2,2.3l19.1,36.3l0.9,1.7l8.5,16.3l15.5,29.5l0.2,0.5
		C376.4,274.6,377.2,277.8,377.2,281.3z"/>
</g>
<g id="Capa_8">
</g>
<g id="Capa_7">
	<path class="st8" d="M263.2,175.7l-6.6,11.6c-8.3-3.5-17.7-5.5-27.6-5.5c-17.4,0-33,6-44.3,15.7c-6.5,8.6-10.4,19.3-10.4,30.7
		c0,21,12.9,39.2,31.6,47.5l-4.2,7.3c-1.6-0.7-3.1-1.5-4.5-2.4c-12-7-21.4-17.9-26.5-30.9c-2.7-6.9-4.2-14.5-4.2-22.4
		c0-26.9,17.4-49.8,41.6-58.3l0.1-0.1v-60.1c-3.8,0-6.9-3.8-6.9-8.6s3.1-8.6,6.9-8.6h41.6c3.8,0,6.9,3.9,6.9,8.6s-3.1,8.6-6.9,8.6
		V169l0.1,0.1C254.5,170.8,259,173,263.2,175.7z"/>
	<path class="st9" d="M256.6,187.3l-50.7,88.4c-18.7-8.3-31.6-26.5-31.6-47.5c0-11.5,3.9-22.1,10.4-30.7
		c11.3-9.7,26.9-15.7,44.3-15.7C238.9,181.9,248.2,183.8,256.6,187.3z"/>
	<g>
		<path class="st10" d="M401,289.3c0,12.3-9.9,22.2-22.2,22.2H223.4c-12.3,0-22.2-9.9-22.2-22.2c0-4.1,1.1-7.9,3-11.1h0l0.1-0.1
			l4.2-7.3l50.7-88.4l6.7-11.6l2-3.5V89.5c-6.1,0-11.1-5-11.1-11.1s5-11.1,11.1-11.1h66.6c6.1,0,11.1,5,11.1,11.1s-5,11.1-11.1,11.1
			v77.7l63.4,110.6l0.2,0.4h0l0,0C399.9,281.5,401,285.3,401,289.3z"/>
	</g>
	<path class="st11" d="M378.3,281.3c0,10.4-7.6,18.9-16.9,18.9H242.4c-9.3,0-16.9-8.5-16.9-18.9c0-3.5,0.8-6.7,2.3-9.5l14.9-29.4
		L251,226l8.2-16.2c3.7,1.7,7.7,2.6,11.9,2.6c9.5,0,18-4.7,23.6-12.1h0.1c0.2-0.3,0.4-0.6,0.6-0.9c0.3-0.4,0.5-0.7,0.8-1.1
		c5.6-7.9,14.4-13,24.3-13c3.9,0,7.7,0.8,11.2,2.3l19.1,36.3l0.9,1.7l8.5,16.3l15.5,29.5l0.2,0.5
		C377.5,274.6,378.3,277.8,378.3,281.3z"/>
	<polyline class="st4" points="268,167 266,170.5 259.3,182.1 	"/>
	<line class="st4" x1="208.6" y1="270.6" x2="204.5" y2="277.8"/>
	<line class="st12" x1="214.8" y1="107.7" x2="214.8" y2="169.5"/>
	<line class="st12" x1="322.7" y1="89.3" x2="322.7" y2="167"/>
	<circle class="st13" cx="322.4" cy="253.8" r="11.1"/>
	<circle class="st13" cx="276.2" cy="270.6" r="5.7"/>
	<g>
		<g>
			<path class="st14" d="M206.9,273.2"/>
		</g>
	</g>
	<g>
		<g>
			<path class="st15" d="M207.9,275.1c0.5-1.1,1-2.1,1.3-3.2c0.2-0.5,0.3-1,0.4-1.5c0.1-0.3,0.1-0.6,0.1-0.8
				c-0.2-0.6-0.9-0.6-1.4-0.6c-0.4,0-0.8,0.2-1.1,0.4c-0.2,0.1-0.5,0.4-0.5,0.7c-0.1,0.7,0.8,0.7,1.3,0.7c0,0,0,0,0,0
				c-0.3,0-0.6-0.1-1-0.1c0,0-0.1-0.1-0.1-0.1c0-0.1-0.1-0.1-0.1-0.2c0,0.1,0,0.1,0,0.2c0-0.1,0-0.2,0-0.2c-0.1,0.8-0.4,1.7-0.7,2.4
				c0,0.1-0.1,0.2-0.1,0.3c0.1-0.1-0.1,0.1-0.1,0.2c-0.1,0.2-0.2,0.4-0.2,0.6c-0.2,0.4-0.4,0.8-0.6,1.3c-0.1,0.2-0.2,0.4,0,0.7
				c0.2,0.2,0.5,0.3,0.8,0.3c0.4,0,0.8-0.1,1.1-0.2C207.4,275.5,207.7,275.4,207.9,275.1L207.9,275.1z"/>
		</g>
	</g>
	<g>
		<g>
			<path class="st15" d="M206.4,270c0-0.1-0.1,0.1-0.1,0.2c-0.1,0.1-0.1,0.2-0.2,0.3c-0.1,0.2-0.3,0.5-0.4,0.8
				c-0.1,0.3-0.1,0.6-0.2,1c0,0.1-0.1,0.3-0.1,0.4c0-0.1,0-0.1,0,0c0.1-0.1,0.1-0.1,0.2-0.2c0.2-0.1,0.5-0.2,0.7-0.3
				c0,0-0.1,0-0.1,0c0.6,0.2,1.1,0.5,1.7,0.7c0-0.2,0.1-0.5,0.2-0.7c0.6-1.5-2.2-1.1-2.7-0.2c-0.1,0.2-0.2,0.4-0.3,0.6
				c0,0-0.1,0.3-0.1,0.3c0,0,0.3-0.3,0,0c-0.5,0.4-0.7,0.8-1,1.3c-0.2,0.4-0.3,1-0.5,1.3c-0.1,0.2-0.2,0.4-0.3,0.6
				c-0.1,0.1-0.1,0.3-0.2,0.4c0,0,0,0.1-0.1,0.1c-0.1,0.1-0.1,0.1,0,0c0.3-0.2,0.6-0.3,1-0.5c0,0-0.1,0-0.1,0
				c0.4,0.5,0.8,0.9,1.2,1.4c0.1-0.1,0.2-0.2,0.3-0.2c-0.8-0.1-1.6-0.3-2.4-0.4c-0.1,0.4,0,0.8,0.3,1c0.5,0.5,1.4,0.4,1.9,0.1
				c0.4-0.2,1.2-0.8,0.7-1.3c-0.1-0.1-0.1-0.1-0.1-0.1c0-0.1,0-0.1,0-0.1c0.1-0.5-0.4-0.7-0.8-0.8c-0.5-0.1-1.2,0-1.6,0.4
				c-0.1,0.1-0.2,0.2-0.3,0.2c-0.3,0.2-0.7,0.7-0.4,1.1c0.3,0.4,1.1,0.4,1.6,0.3c0.5-0.2,1-0.4,1.3-0.9c0.1-0.2,0.2-0.5,0.4-0.7
				c0.1-0.3,0.3-0.5,0.4-0.8c0.1-0.3,0.1-0.5,0.2-0.8c0.1-0.2,0.2-0.5,0.4-0.7c0,0,0.2-0.3,0.2-0.3c0,0.1-0.2,0.2,0,0.1
				c0.6-0.4,0.8-1,1.1-1.5c-0.9-0.1-1.8-0.1-2.7-0.2c-0.2,0.4-0.3,0.8-0.4,1.2c-0.2,0.9,1.2,0.8,1.7,0.7c0.6-0.2,1.2-0.5,1.5-1.1
				c0.2-0.4,0.3-0.8,0.3-1.2c0-0.3,0.3-0.7,0.4-1c0.3-0.4,0.5-0.8,0.4-1.3c0-0.3-0.4-0.4-0.6-0.5c-0.3-0.1-0.8-0.1-1.1,0
				C207,268.9,206.3,269.3,206.4,270L206.4,270z"/>
		</g>
	</g>
	<g>
		<g>
			<path class="st15" d="M203.8,278.8c-0.1,0,0,0.2,0,0.2c0,0.2,0.4,0.3,0.5,0.4c0.3,0,0.6,0,0.9,0c0.4-0.1,1.4-0.4,1.5-0.9
				c0.1-0.7,0.5-1.3,0.9-1.9c0.4-0.7,0.8-1.3,1.2-2c0.6-1.2,1.1-2.4,2-3.3c-0.9,0.1-1.9,0.1-2.8,0.2c0,0.5-0.3,1.1-0.6,1.5
				c-0.2,0.2-0.3,0.4-0.5,0.6c-0.1,0.1-0.1,0.2-0.2,0.3c0,0.1-0.1,0.1-0.1,0.2c0.2-0.2,0.4-0.3,0.7-0.3c-0.4,0.1-1.4,0.5-1.3,1
				c0.1,0.6,1.3,0.4,1.6,0.3c0.6-0.2,1.2-0.4,1.6-0.9c0.2-0.3,0.4-0.5,0.6-0.8c0.3-0.3,0.5-0.6,0.7-1c0.2-0.4,0.4-0.8,0.4-1.2
				c0-0.5-0.6-0.6-1-0.6c-0.7,0-1.3,0.3-1.7,0.8c-1,1-1.5,2.4-2.2,3.6C205.2,276.1,204.1,277.3,203.8,278.8c1-0.2,1.9-0.4,2.9-0.6
				c0-0.4-0.3-0.6-0.6-0.8c-0.2-0.1-0.7-0.1-0.9-0.1c-0.4,0-0.8,0.2-1.1,0.4C203.7,278,203.3,278.5,203.8,278.8L203.8,278.8z"/>
		</g>
	</g>
	<g>
		<g>
			<path class="st15" d="M260.2,181.2c0.9-1.3,1.7-2.6,2.5-3.9c0.3-0.5-0.2-0.9-0.7-1c-0.6-0.1-1.5,0.1-1.9,0.6
				c-0.4,0.5-0.8,0.9-1.2,1.4c-0.4,0.5-0.3,1,0.3,1.2c0.7,0.2,1.5-0.1,2-0.5c1-0.9,1.5-2.2,2.2-3.4c0.7-1.3,1.5-2.5,2.4-3.7
				c0.3-0.4,0-0.8-0.4-0.9c-0.5-0.2-1.1-0.1-1.6,0.1c-0.4,0.2-0.7,0.4-1.1,0.7c0.9,0.1,1.8,0.1,2.6,0.2c0.1-1,1-1.9,1.5-2.7
				c0.7-1,1.3-2,1.9-3c0.4-0.6-0.3-1-0.8-1c-0.7-0.1-1.5,0.2-1.9,0.8c-0.7,1.1-1.4,2.2-2.1,3.2c-0.6,0.9-1.5,1.8-1.6,3
				c0,0.5,0.5,0.8,0.9,0.8c0.6,0.1,1.2-0.2,1.7-0.6c0,0-0.1,0.1-0.1,0.1c-0.7-0.3-1.3-0.6-2-0.8c-0.8,1.1-1.6,2.3-2.2,3.5
				c-0.6,1.1-1,2.3-1.9,3.1c0.8,0.2,1.6,0.4,2.4,0.7c0.4-0.4,0.8-0.9,1.2-1.4c-0.9-0.1-1.7-0.3-2.6-0.4c-0.8,1.3-1.6,2.6-2.5,3.9
				c-0.4,0.6,0.3,1,0.8,1C259,182.1,259.8,181.8,260.2,181.2L260.2,181.2z"/>
		</g>
	</g>
	<g>
		<g>
			<path class="st15" d="M265.3,170.4c0.1,0.2,0.2,0.3,0.4,0.3c0.1,0,0.2,0,0.4,0.1c0.2,0,0.5,0,0.8-0.1c0.4-0.1,0.7-0.2,1.1-0.3
				c0.3-0.1,0.6-0.2,0.8-0.4c0.2-0.1,0.4-0.3,0.5-0.5c0.1-0.1,0.1-0.2,0.2-0.3c0.1-0.2,0.2-0.4,0.2-0.7c0-0.1,0-0.1,0-0.2
				c0-0.1-0.1-0.1-0.2-0.1c-0.1,0-0.3,0-0.4,0c-0.2,0-0.3,0-0.5,0c-0.4,0.1-0.8,0.2-1.1,0.3c-0.1,0.1-0.2,0.1-0.3,0.2
				c-0.1,0.1-0.2,0.2-0.3,0.3c0,0.2-0.1,0.4-0.2,0.5c-0.1,0.2-0.2,0.3-0.3,0.5c0-0.1,0.1-0.1,0.1-0.2c0,0-0.1,0.1-0.1,0.1
				c0.1-0.1,0.1-0.1,0.2-0.2c0,0-0.1,0-0.1,0.1c0.1-0.1,0.2-0.1,0.3-0.2c0,0-0.1,0.1-0.2,0.1c0.1,0,0.2-0.1,0.3-0.1
				c-0.1,0-0.1,0.1-0.2,0.1c0.1,0,0.3-0.1,0.4-0.1c0,0,0,0-0.1,0c0.1,0,0.3-0.1,0.4-0.1c0,0-0.1,0-0.1,0c0.1,0,0.2,0,0.4,0
				c0,0,0,0-0.1,0c0.1,0,0.2,0,0.3,0c0,0,0,0-0.1,0c0.1,0,0.2,0,0.3,0c0,0-0.1,0-0.1,0c0.1,0,0.1,0,0.2,0.1c-0.1,0-0.1-0.1-0.1-0.1
				c0,0,0.1,0.1,0.1,0.1c0,0,0,0,0,0c0-0.1-0.1-0.1-0.2-0.1c-0.1-0.1-0.2-0.1-0.3-0.1c-0.2,0-0.3,0-0.5,0c-0.2,0-0.4,0.1-0.6,0.1
				c-0.3,0.1-0.7,0.2-1,0.4c-0.1,0.1-0.1,0.1-0.2,0.2C265.3,170.2,265.2,170.3,265.3,170.4L265.3,170.4z"/>
		</g>
	</g>
	<g>
		<g>
			<path class="st15" d="M268.1,169.5c0.7-0.2,1.4-0.5,1.7-1.1c0.2-0.4,0.5-0.9,0.1-1.3c-0.3-0.3-0.9-0.3-1.3-0.2
				c-0.5,0.1-1.1,0.3-1.6,0.7c-0.4,0.4-0.5,0.9-0.8,1.4c0-0.1,0.1-0.1,0.1-0.2c-0.2,0.3-0.4,0.6-0.6,0.9c-0.1,0.1-0.1,0.3-0.1,0.4
				c0,0.1,0,0.2,0,0.3c0,0.1,0.1,0.1,0.1,0.2c0-0.1,0-0.1,0-0.2c0,0.3-0.2,0.6-0.3,0.9c-0.2,0.3-0.3,0.6-0.5,0.9
				c-0.1,0.2,0.1,0.4,0.3,0.4c0.3,0.1,0.7,0.1,0.9,0.1c0.6-0.1,1.4-0.3,1.7-0.9c0.2-0.4,0.4-0.8,0.6-1.2c0.1-0.2,0.2-0.3,0.2-0.5
				c0-0.1,0-0.3,0-0.4c0-0.1-0.1-0.1-0.1-0.2c0,0.1,0,0.1,0,0.2c0-0.1,0.1-0.3,0.1-0.4c0,0.1-0.1,0.1-0.1,0.2
				c0.2-0.3,0.4-0.6,0.6-0.9c0.2-0.3,0.3-0.6,0.4-0.9c0,0.1-0.1,0.1-0.1,0.2c0.3-0.4-0.1-0.3-1.2,0.5c-0.2,0-0.5,0-0.7,0
				c-0.1,0-0.1,0-0.2,0c-0.1,0-0.1-0.1-0.2-0.1c0.1,0,0.1,0.1,0.1,0.1c0-0.1-0.1-0.1-0.1-0.2c0,0.1,0,0.1,0,0.2c0-0.1,0-0.1,0-0.2
				c0,0.2-0.1,0.3-0.2,0.4c0-0.1,0.1-0.1,0.1-0.2c-0.1,0.1-0.1,0.2-0.2,0.3c0,0-0.1,0.1-0.1,0.1c0.1-0.2,0.7-0.4,0.8-0.4
				c-0.3,0.1-0.7,0.2-1,0.5c-0.1,0.1-0.4,0.4-0.3,0.6C266.7,169.8,267.7,169.6,268.1,169.5L268.1,169.5z"/>
		</g>
	</g>
	<g>
		<g>
			<path class="st15" d="M264.5,172.6c-0.3,0.9-0.7,1.7-1.3,2.5c-0.6,0.8-1,1.7-1.5,2.6c-0.5,0.8-1,1.7-1.5,2.5
				c-0.2,0.4-0.5,0.8-0.7,1.2c-0.2,0.3-0.4,0.8-0.7,1.1c0.6-0.2,1.1-0.4,1.7-0.6c0,0-0.1,0-0.1,0c0.2,0,0.4,0.1,0.6,0.1
				c-0.1,0-0.2-0.2-0.3-0.4c-0.3-0.6-1.1-0.5-1.7-0.4c-0.4,0.1-1.5,0.6-1.2,1.2c0.2,0.5,0.5,1,1.1,1.2c1,0.3,2-0.3,2.6-1.1
				c0.8-1,1.4-2.2,2-3.3c0.6-1.1,1.2-2.2,1.9-3.3c0.3-0.6,0.8-1.1,1.1-1.7c0.3-0.6,0.6-1.2,0.8-1.9c0.3-0.6-0.9-0.7-1.3-0.7
				C265.5,171.6,264.8,171.9,264.5,172.6L264.5,172.6z"/>
		</g>
	</g>
	<g>
		<g>
			<path class="st15" d="M260.2,183.9c1.7,0,2.2-2.2,0.2-2.2C258.8,181.7,258.3,183.9,260.2,183.9L260.2,183.9z"/>
		</g>
	</g>
	<path class="st10" d="M208.6,275.7"/>
</g>
<g id="cuadricula" class="st0">
	<g class="st3">
		<rect x="0.5" y="0.5" class="st16" width="22.2" height="22.2"/>
		<rect x="22.7" y="0.5" class="st16" width="22.2" height="22.2"/>
		<rect x="44.9" y="0.5" class="st16" width="22.2" height="22.2"/>
		<rect x="67.1" y="0.5" class="st16" width="22.2" height="22.2"/>
		<rect x="89.3" y="0.5" class="st16" width="22.2" height="22.2"/>
		<rect x="111.5" y="0.5" class="st16" width="22.2" height="22.2"/>
		<rect x="133.7" y="0.5" class="st16" width="22.2" height="22.2"/>
		<rect x="155.9" y="0.5" class="st16" width="22.2" height="22.2"/>
		<rect x="178.1" y="0.5" class="st16" width="22.2" height="22.2"/>
		<rect x="200.3" y="0.5" class="st16" width="22.2" height="22.2"/>
		<rect x="222.5" y="0.5" class="st16" width="22.2" height="22.2"/>
		<rect x="244.7" y="0.5" class="st16" width="22.2" height="22.2"/>
		<rect x="266.9" y="0.5" class="st16" width="22.2" height="22.2"/>
		<rect x="289.1" y="0.5" class="st16" width="22.2" height="22.2"/>
		<rect x="311.3" y="0.5" class="st16" width="22.2" height="22.2"/>
		<rect x="333.5" y="0.5" class="st16" width="22.2" height="22.2"/>
		<rect x="355.7" y="0.5" class="st16" width="22.2" height="22.2"/>
		<rect x="377.9" y="0.5" class="st16" width="22.2" height="22.2"/>
		<rect x="400.1" y="0.5" class="st16" width="22.2" height="22.2"/>
		<rect x="422.3" y="0.5" class="st16" width="22.2" height="22.2"/>
		<rect x="444.5" y="0.5" class="st16" width="22.2" height="22.2"/>
		<rect x="466.7" y="0.5" class="st16" width="22.2" height="22.2"/>
		<rect x="488.9" y="0.5" class="st16" width="22.2" height="22.2"/>
		<rect x="511.1" y="0.5" class="st16" width="22.2" height="22.2"/>
		<rect x="533.3" y="0.5" class="st16" width="22.2" height="22.2"/>
		<rect x="0.5" y="22.7" class="st16" width="22.2" height="22.2"/>
		<rect x="22.7" y="22.7" class="st16" width="22.2" height="22.2"/>
		<rect x="44.9" y="22.7" class="st16" width="22.2" height="22.2"/>
		<rect x="67.1" y="22.7" class="st16" width="22.2" height="22.2"/>
		<rect x="89.3" y="22.7" class="st16" width="22.2" height="22.2"/>
		<rect x="111.5" y="22.7" class="st16" width="22.2" height="22.2"/>
		<rect x="133.7" y="22.7" class="st16" width="22.2" height="22.2"/>
		<rect x="155.9" y="22.7" class="st16" width="22.2" height="22.2"/>
		<rect x="178.1" y="22.7" class="st16" width="22.2" height="22.2"/>
		<rect x="200.3" y="22.7" class="st16" width="22.2" height="22.2"/>
		<rect x="222.5" y="22.7" class="st16" width="22.2" height="22.2"/>
		<rect x="244.7" y="22.7" class="st16" width="22.2" height="22.2"/>
		<rect x="266.9" y="22.7" class="st16" width="22.2" height="22.2"/>
		<rect x="289.1" y="22.7" class="st16" width="22.2" height="22.2"/>
		<rect x="311.3" y="22.7" class="st16" width="22.2" height="22.2"/>
		<rect x="333.5" y="22.7" class="st16" width="22.2" height="22.2"/>
		<rect x="355.7" y="22.7" class="st16" width="22.2" height="22.2"/>
		<rect x="377.9" y="22.7" class="st16" width="22.2" height="22.2"/>
		<rect x="400.1" y="22.7" class="st16" width="22.2" height="22.2"/>
		<rect x="422.3" y="22.7" class="st16" width="22.2" height="22.2"/>
		<rect x="444.5" y="22.7" class="st16" width="22.2" height="22.2"/>
		<rect x="466.7" y="22.7" class="st16" width="22.2" height="22.2"/>
		<rect x="488.9" y="22.7" class="st16" width="22.2" height="22.2"/>
		<rect x="511.1" y="22.7" class="st16" width="22.2" height="22.2"/>
		<rect x="533.3" y="22.7" class="st16" width="22.2" height="22.2"/>
		<rect x="0.5" y="44.9" class="st16" width="22.2" height="22.2"/>
		<rect x="22.7" y="44.9" class="st16" width="22.2" height="22.2"/>
		<rect x="44.9" y="44.9" class="st16" width="22.2" height="22.2"/>
		<rect x="67.1" y="44.9" class="st16" width="22.2" height="22.2"/>
		<rect x="89.3" y="44.9" class="st16" width="22.2" height="22.2"/>
		<rect x="111.5" y="44.9" class="st16" width="22.2" height="22.2"/>
		<rect x="133.7" y="44.9" class="st16" width="22.2" height="22.2"/>
		<rect x="155.9" y="44.9" class="st16" width="22.2" height="22.2"/>
		<rect x="178.1" y="44.9" class="st16" width="22.2" height="22.2"/>
		<rect x="200.3" y="44.9" class="st16" width="22.2" height="22.2"/>
		<rect x="222.5" y="44.9" class="st16" width="22.2" height="22.2"/>
		<rect x="244.7" y="44.9" class="st16" width="22.2" height="22.2"/>
		<rect x="266.9" y="44.9" class="st16" width="22.2" height="22.2"/>
		<rect x="289.1" y="44.9" class="st16" width="22.2" height="22.2"/>
		<rect x="311.3" y="44.9" class="st16" width="22.2" height="22.2"/>
		<rect x="333.5" y="44.9" class="st16" width="22.2" height="22.2"/>
		<rect x="355.7" y="44.9" class="st16" width="22.2" height="22.2"/>
		<rect x="377.9" y="44.9" class="st16" width="22.2" height="22.2"/>
		<rect x="400.1" y="44.9" class="st16" width="22.2" height="22.2"/>
		<rect x="422.3" y="44.9" class="st16" width="22.2" height="22.2"/>
		<rect x="444.5" y="44.9" class="st16" width="22.2" height="22.2"/>
		<rect x="466.7" y="44.9" class="st16" width="22.2" height="22.2"/>
		<rect x="488.9" y="44.9" class="st16" width="22.2" height="22.2"/>
		<rect x="511.1" y="44.9" class="st16" width="22.2" height="22.2"/>
		<rect x="533.3" y="44.9" class="st16" width="22.2" height="22.2"/>
		<rect x="0.5" y="67.1" class="st16" width="22.2" height="22.2"/>
		<rect x="22.7" y="67.1" class="st16" width="22.2" height="22.2"/>
		<rect x="44.9" y="67.1" class="st16" width="22.2" height="22.2"/>
		<rect x="67.1" y="67.1" class="st16" width="22.2" height="22.2"/>
		<rect x="89.3" y="67.1" class="st16" width="22.2" height="22.2"/>
		<rect x="111.5" y="67.1" class="st16" width="22.2" height="22.2"/>
		<rect x="133.7" y="67.1" class="st16" width="22.2" height="22.2"/>
		<rect x="155.9" y="67.1" class="st16" width="22.2" height="22.2"/>
		<rect x="178.1" y="67.1" class="st16" width="22.2" height="22.2"/>
		<rect x="200.3" y="67.1" class="st16" width="22.2" height="22.2"/>
		<rect x="222.5" y="67.1" class="st16" width="22.2" height="22.2"/>
		<rect x="244.7" y="67.1" class="st16" width="22.2" height="22.2"/>
		<rect x="266.9" y="67.1" class="st16" width="22.2" height="22.2"/>
		<rect x="289.1" y="67.1" class="st16" width="22.2" height="22.2"/>
		<rect x="311.3" y="67.1" class="st16" width="22.2" height="22.2"/>
		<rect x="333.5" y="67.1" class="st16" width="22.2" height="22.2"/>
		<rect x="355.7" y="67.1" class="st16" width="22.2" height="22.2"/>
		<rect x="377.9" y="67.1" class="st16" width="22.2" height="22.2"/>
		<rect x="400.1" y="67.1" class="st16" width="22.2" height="22.2"/>
		<rect x="422.3" y="67.1" class="st16" width="22.2" height="22.2"/>
		<rect x="444.5" y="67.1" class="st16" width="22.2" height="22.2"/>
		<rect x="466.7" y="67.1" class="st16" width="22.2" height="22.2"/>
		<rect x="488.9" y="67.1" class="st16" width="22.2" height="22.2"/>
		<rect x="511.1" y="67.1" class="st16" width="22.2" height="22.2"/>
		<rect x="533.3" y="67.1" class="st16" width="22.2" height="22.2"/>
		<rect x="0.5" y="89.3" class="st16" width="22.2" height="22.2"/>
		<rect x="22.7" y="89.3" class="st16" width="22.2" height="22.2"/>
		<rect x="44.9" y="89.3" class="st16" width="22.2" height="22.2"/>
		<rect x="67.1" y="89.3" class="st16" width="22.2" height="22.2"/>
		<rect x="89.3" y="89.3" class="st16" width="22.2" height="22.2"/>
		<rect x="111.5" y="89.3" class="st16" width="22.2" height="22.2"/>
		<rect x="133.7" y="89.3" class="st16" width="22.2" height="22.2"/>
		<rect x="155.9" y="89.3" class="st16" width="22.2" height="22.2"/>
		<rect x="178.1" y="89.3" class="st16" width="22.2" height="22.2"/>
		<rect x="200.3" y="89.3" class="st16" width="22.2" height="22.2"/>
		<rect x="222.5" y="89.3" class="st16" width="22.2" height="22.2"/>
		<rect x="244.7" y="89.3" class="st16" width="22.2" height="22.2"/>
		<rect x="266.9" y="89.3" class="st16" width="22.2" height="22.2"/>
		<rect x="289.1" y="89.3" class="st16" width="22.2" height="22.2"/>
		<rect x="311.3" y="89.3" class="st16" width="22.2" height="22.2"/>
		<rect x="333.5" y="89.3" class="st16" width="22.2" height="22.2"/>
		<rect x="355.7" y="89.3" class="st16" width="22.2" height="22.2"/>
		<rect x="377.9" y="89.3" class="st16" width="22.2" height="22.2"/>
		<rect x="400.1" y="89.3" class="st16" width="22.2" height="22.2"/>
		<rect x="422.3" y="89.3" class="st16" width="22.2" height="22.2"/>
		<rect x="444.5" y="89.3" class="st16" width="22.2" height="22.2"/>
		<rect x="466.7" y="89.3" class="st16" width="22.2" height="22.2"/>
		<rect x="488.9" y="89.3" class="st16" width="22.2" height="22.2"/>
		<rect x="511.1" y="89.3" class="st16" width="22.2" height="22.2"/>
		<rect x="533.3" y="89.3" class="st16" width="22.2" height="22.2"/>
		<rect x="0.5" y="111.5" class="st16" width="22.2" height="22.2"/>
		<rect x="22.7" y="111.5" class="st16" width="22.2" height="22.2"/>
		<rect x="44.9" y="111.5" class="st16" width="22.2" height="22.2"/>
		<rect x="67.1" y="111.5" class="st16" width="22.2" height="22.2"/>
		<rect x="89.3" y="111.5" class="st16" width="22.2" height="22.2"/>
		<rect x="111.5" y="111.5" class="st16" width="22.2" height="22.2"/>
		<rect x="133.7" y="111.5" class="st16" width="22.2" height="22.2"/>
		<rect x="155.9" y="111.5" class="st16" width="22.2" height="22.2"/>
		<rect x="178.1" y="111.5" class="st16" width="22.2" height="22.2"/>
		<rect x="200.3" y="111.5" class="st16" width="22.2" height="22.2"/>
		<rect x="222.5" y="111.5" class="st16" width="22.2" height="22.2"/>
		<rect x="244.7" y="111.5" class="st16" width="22.2" height="22.2"/>
		<rect x="266.9" y="111.5" class="st16" width="22.2" height="22.2"/>
		<rect x="289.1" y="111.5" class="st16" width="22.2" height="22.2"/>
		<rect x="311.3" y="111.5" class="st16" width="22.2" height="22.2"/>
		<rect x="333.5" y="111.5" class="st16" width="22.2" height="22.2"/>
		<rect x="355.7" y="111.5" class="st16" width="22.2" height="22.2"/>
		<rect x="377.9" y="111.5" class="st16" width="22.2" height="22.2"/>
		<rect x="400.1" y="111.5" class="st16" width="22.2" height="22.2"/>
		<rect x="422.3" y="111.5" class="st16" width="22.2" height="22.2"/>
		<rect x="444.5" y="111.5" class="st16" width="22.2" height="22.2"/>
		<rect x="466.7" y="111.5" class="st16" width="22.2" height="22.2"/>
		<rect x="488.9" y="111.5" class="st16" width="22.2" height="22.2"/>
		<rect x="511.1" y="111.5" class="st16" width="22.2" height="22.2"/>
		<rect x="533.3" y="111.5" class="st16" width="22.2" height="22.2"/>
		<rect x="0.5" y="133.7" class="st16" width="22.2" height="22.2"/>
		<rect x="22.7" y="133.7" class="st16" width="22.2" height="22.2"/>
		<rect x="44.9" y="133.7" class="st16" width="22.2" height="22.2"/>
		<rect x="67.1" y="133.7" class="st16" width="22.2" height="22.2"/>
		<rect x="89.3" y="133.7" class="st16" width="22.2" height="22.2"/>
		<rect x="111.5" y="133.7" class="st16" width="22.2" height="22.2"/>
		<rect x="133.7" y="133.7" class="st16" width="22.2" height="22.2"/>
		<rect x="155.9" y="133.7" class="st16" width="22.2" height="22.2"/>
		<rect x="178.1" y="133.7" class="st16" width="22.2" height="22.2"/>
		<rect x="200.3" y="133.7" class="st16" width="22.2" height="22.2"/>
		<rect x="222.5" y="133.7" class="st16" width="22.2" height="22.2"/>
		<rect x="244.7" y="133.7" class="st16" width="22.2" height="22.2"/>
		<rect x="266.9" y="133.7" class="st16" width="22.2" height="22.2"/>
		<rect x="289.1" y="133.7" class="st16" width="22.2" height="22.2"/>
		<rect x="311.3" y="133.7" class="st16" width="22.2" height="22.2"/>
		<rect x="333.5" y="133.7" class="st16" width="22.2" height="22.2"/>
		<rect x="355.7" y="133.7" class="st16" width="22.2" height="22.2"/>
		<rect x="377.9" y="133.7" class="st16" width="22.2" height="22.2"/>
		<rect x="400.1" y="133.7" class="st16" width="22.2" height="22.2"/>
		<rect x="422.3" y="133.7" class="st16" width="22.2" height="22.2"/>
		<rect x="444.5" y="133.7" class="st16" width="22.2" height="22.2"/>
		<rect x="466.7" y="133.7" class="st16" width="22.2" height="22.2"/>
		<rect x="488.9" y="133.7" class="st16" width="22.2" height="22.2"/>
		<rect x="511.1" y="133.7" class="st16" width="22.2" height="22.2"/>
		<rect x="533.3" y="133.7" class="st16" width="22.2" height="22.2"/>
		<rect x="0.5" y="155.9" class="st16" width="22.2" height="22.2"/>
		<rect x="22.7" y="155.9" class="st16" width="22.2" height="22.2"/>
		<rect x="44.9" y="155.9" class="st16" width="22.2" height="22.2"/>
		<rect x="67.1" y="155.9" class="st16" width="22.2" height="22.2"/>
		<rect x="89.3" y="155.9" class="st16" width="22.2" height="22.2"/>
		<rect x="111.5" y="155.9" class="st16" width="22.2" height="22.2"/>
		<rect x="133.7" y="155.9" class="st16" width="22.2" height="22.2"/>
		<rect x="155.9" y="155.9" class="st16" width="22.2" height="22.2"/>
		<rect x="178.1" y="155.9" class="st16" width="22.2" height="22.2"/>
		<rect x="200.3" y="155.9" class="st16" width="22.2" height="22.2"/>
		<rect x="222.5" y="155.9" class="st16" width="22.2" height="22.2"/>
		<rect x="244.7" y="155.9" class="st16" width="22.2" height="22.2"/>
		<rect x="266.9" y="155.9" class="st16" width="22.2" height="22.2"/>
		<rect x="289.1" y="155.9" class="st16" width="22.2" height="22.2"/>
		<rect x="311.3" y="155.9" class="st16" width="22.2" height="22.2"/>
		<rect x="333.5" y="155.9" class="st16" width="22.2" height="22.2"/>
		<rect x="355.7" y="155.9" class="st16" width="22.2" height="22.2"/>
		<rect x="377.9" y="155.9" class="st16" width="22.2" height="22.2"/>
		<rect x="400.1" y="155.9" class="st16" width="22.2" height="22.2"/>
		<rect x="422.3" y="155.9" class="st16" width="22.2" height="22.2"/>
		<rect x="444.5" y="155.9" class="st16" width="22.2" height="22.2"/>
		<rect x="466.7" y="155.9" class="st16" width="22.2" height="22.2"/>
		<rect x="488.9" y="155.9" class="st16" width="22.2" height="22.2"/>
		<rect x="511.1" y="155.9" class="st16" width="22.2" height="22.2"/>
		<rect x="533.3" y="155.9" class="st16" width="22.2" height="22.2"/>
		<rect x="0.5" y="178.1" class="st16" width="22.2" height="22.2"/>
		<rect x="22.7" y="178.1" class="st16" width="22.2" height="22.2"/>
		<rect x="44.9" y="178.1" class="st16" width="22.2" height="22.2"/>
		<rect x="67.1" y="178.1" class="st16" width="22.2" height="22.2"/>
		<rect x="89.3" y="178.1" class="st16" width="22.2" height="22.2"/>
		<rect x="111.5" y="178.1" class="st16" width="22.2" height="22.2"/>
		<rect x="133.7" y="178.1" class="st16" width="22.2" height="22.2"/>
		<rect x="155.9" y="178.1" class="st16" width="22.2" height="22.2"/>
		<rect x="178.1" y="178.1" class="st16" width="22.2" height="22.2"/>
		<rect x="200.3" y="178.1" class="st16" width="22.2" height="22.2"/>
		<rect x="222.5" y="178.1" class="st16" width="22.2" height="22.2"/>
		<rect x="244.7" y="178.1" class="st16" width="22.2" height="22.2"/>
		<rect x="266.9" y="178.1" class="st16" width="22.2" height="22.2"/>
		<rect x="289.1" y="178.1" class="st16" width="22.2" height="22.2"/>
		<rect x="311.3" y="178.1" class="st16" width="22.2" height="22.2"/>
		<rect x="333.5" y="178.1" class="st16" width="22.2" height="22.2"/>
		<rect x="355.7" y="178.1" class="st16" width="22.2" height="22.2"/>
		<rect x="377.9" y="178.1" class="st16" width="22.2" height="22.2"/>
		<rect x="400.1" y="178.1" class="st16" width="22.2" height="22.2"/>
		<rect x="422.3" y="178.1" class="st16" width="22.2" height="22.2"/>
		<rect x="444.5" y="178.1" class="st16" width="22.2" height="22.2"/>
		<rect x="466.7" y="178.1" class="st16" width="22.2" height="22.2"/>
		<rect x="488.9" y="178.1" class="st16" width="22.2" height="22.2"/>
		<rect x="511.1" y="178.1" class="st16" width="22.2" height="22.2"/>
		<rect x="533.3" y="178.1" class="st16" width="22.2" height="22.2"/>
		<rect x="0.5" y="200.3" class="st16" width="22.2" height="22.2"/>
		<rect x="22.7" y="200.3" class="st16" width="22.2" height="22.2"/>
		<rect x="44.9" y="200.3" class="st16" width="22.2" height="22.2"/>
		<rect x="67.1" y="200.3" class="st16" width="22.2" height="22.2"/>
		<rect x="89.3" y="200.3" class="st16" width="22.2" height="22.2"/>
		<rect x="111.5" y="200.3" class="st16" width="22.2" height="22.2"/>
		<rect x="133.7" y="200.3" class="st16" width="22.2" height="22.2"/>
		<rect x="155.9" y="200.3" class="st16" width="22.2" height="22.2"/>
		<rect x="178.1" y="200.3" class="st16" width="22.2" height="22.2"/>
		<rect x="200.3" y="200.3" class="st16" width="22.2" height="22.2"/>
		<rect x="222.5" y="200.3" class="st16" width="22.2" height="22.2"/>
		<rect x="244.7" y="200.3" class="st16" width="22.2" height="22.2"/>
		<rect x="266.9" y="200.3" class="st16" width="22.2" height="22.2"/>
		<rect x="289.1" y="200.3" class="st16" width="22.2" height="22.2"/>
		<rect x="311.3" y="200.3" class="st16" width="22.2" height="22.2"/>
		<rect x="333.5" y="200.3" class="st16" width="22.2" height="22.2"/>
		<rect x="355.7" y="200.3" class="st16" width="22.2" height="22.2"/>
		<rect x="377.9" y="200.3" class="st16" width="22.2" height="22.2"/>
		<rect x="400.1" y="200.3" class="st16" width="22.2" height="22.2"/>
		<rect x="422.3" y="200.3" class="st16" width="22.2" height="22.2"/>
		<rect x="444.5" y="200.3" class="st16" width="22.2" height="22.2"/>
		<rect x="466.7" y="200.3" class="st16" width="22.2" height="22.2"/>
		<rect x="488.9" y="200.3" class="st16" width="22.2" height="22.2"/>
		<rect x="511.1" y="200.3" class="st16" width="22.2" height="22.2"/>
		<rect x="533.3" y="200.3" class="st16" width="22.2" height="22.2"/>
		<rect x="0.5" y="222.5" class="st16" width="22.2" height="22.2"/>
		<rect x="22.7" y="222.5" class="st16" width="22.2" height="22.2"/>
		<rect x="44.9" y="222.5" class="st16" width="22.2" height="22.2"/>
		<rect x="67.1" y="222.5" class="st16" width="22.2" height="22.2"/>
		<rect x="89.3" y="222.5" class="st16" width="22.2" height="22.2"/>
		<rect x="111.5" y="222.5" class="st16" width="22.2" height="22.2"/>
		<rect x="133.7" y="222.5" class="st16" width="22.2" height="22.2"/>
		<rect x="155.9" y="222.5" class="st16" width="22.2" height="22.2"/>
		<rect x="178.1" y="222.5" class="st16" width="22.2" height="22.2"/>
		<rect x="200.3" y="222.5" class="st16" width="22.2" height="22.2"/>
		<rect x="222.5" y="222.5" class="st16" width="22.2" height="22.2"/>
		<rect x="244.7" y="222.5" class="st16" width="22.2" height="22.2"/>
		<rect x="266.9" y="222.5" class="st16" width="22.2" height="22.2"/>
		<rect x="289.1" y="222.5" class="st16" width="22.2" height="22.2"/>
		<rect x="311.3" y="222.5" class="st16" width="22.2" height="22.2"/>
		<rect x="333.5" y="222.5" class="st16" width="22.2" height="22.2"/>
		<rect x="355.7" y="222.5" class="st16" width="22.2" height="22.2"/>
		<rect x="377.9" y="222.5" class="st16" width="22.2" height="22.2"/>
		<rect x="400.1" y="222.5" class="st16" width="22.2" height="22.2"/>
		<rect x="422.3" y="222.5" class="st16" width="22.2" height="22.2"/>
		<rect x="444.5" y="222.5" class="st16" width="22.2" height="22.2"/>
		<rect x="466.7" y="222.5" class="st16" width="22.2" height="22.2"/>
		<rect x="488.9" y="222.5" class="st16" width="22.2" height="22.2"/>
		<rect x="511.1" y="222.5" class="st16" width="22.2" height="22.2"/>
		<rect x="533.3" y="222.5" class="st16" width="22.2" height="22.2"/>
		<rect x="0.5" y="244.7" class="st16" width="22.2" height="22.2"/>
		<rect x="22.7" y="244.7" class="st16" width="22.2" height="22.2"/>
		<rect x="44.9" y="244.7" class="st16" width="22.2" height="22.2"/>
		<rect x="67.1" y="244.7" class="st16" width="22.2" height="22.2"/>
		<rect x="89.3" y="244.7" class="st16" width="22.2" height="22.2"/>
		<rect x="111.5" y="244.7" class="st16" width="22.2" height="22.2"/>
		<rect x="133.7" y="244.7" class="st16" width="22.2" height="22.2"/>
		<rect x="155.9" y="244.7" class="st16" width="22.2" height="22.2"/>
		<rect x="178.1" y="244.7" class="st16" width="22.2" height="22.2"/>
		<rect x="200.3" y="244.7" class="st16" width="22.2" height="22.2"/>
		<rect x="222.5" y="244.7" class="st16" width="22.2" height="22.2"/>
		<rect x="244.7" y="244.7" class="st16" width="22.2" height="22.2"/>
		<rect x="266.9" y="244.7" class="st16" width="22.2" height="22.2"/>
		<rect x="289.1" y="244.7" class="st16" width="22.2" height="22.2"/>
		<rect x="311.3" y="244.7" class="st16" width="22.2" height="22.2"/>
		<rect x="333.5" y="244.7" class="st16" width="22.2" height="22.2"/>
		<rect x="355.7" y="244.7" class="st16" width="22.2" height="22.2"/>
		<rect x="377.9" y="244.7" class="st16" width="22.2" height="22.2"/>
		<rect x="400.1" y="244.7" class="st16" width="22.2" height="22.2"/>
		<rect x="422.3" y="244.7" class="st16" width="22.2" height="22.2"/>
		<rect x="444.5" y="244.7" class="st16" width="22.2" height="22.2"/>
		<rect x="466.7" y="244.7" class="st16" width="22.2" height="22.2"/>
		<rect x="488.9" y="244.7" class="st16" width="22.2" height="22.2"/>
		<rect x="511.1" y="244.7" class="st16" width="22.2" height="22.2"/>
		<rect x="533.3" y="244.7" class="st16" width="22.2" height="22.2"/>
		<rect x="0.5" y="266.9" class="st16" width="22.2" height="22.2"/>
		<rect x="22.7" y="266.9" class="st16" width="22.2" height="22.2"/>
		<rect x="44.9" y="266.9" class="st16" width="22.2" height="22.2"/>
		<rect x="67.1" y="266.9" class="st16" width="22.2" height="22.2"/>
		<rect x="89.3" y="266.9" class="st16" width="22.2" height="22.2"/>
		<rect x="111.5" y="266.9" class="st16" width="22.2" height="22.2"/>
		<rect x="133.7" y="266.9" class="st16" width="22.2" height="22.2"/>
		<rect x="155.9" y="266.9" class="st16" width="22.2" height="22.2"/>
		<rect x="178.1" y="266.9" class="st16" width="22.2" height="22.2"/>
		<rect x="200.3" y="266.9" class="st16" width="22.2" height="22.2"/>
		<rect x="222.5" y="266.9" class="st16" width="22.2" height="22.2"/>
		<rect x="244.7" y="266.9" class="st16" width="22.2" height="22.2"/>
		<rect x="266.9" y="266.9" class="st16" width="22.2" height="22.2"/>
		<rect x="289.1" y="266.9" class="st16" width="22.2" height="22.2"/>
		<rect x="311.3" y="266.9" class="st16" width="22.2" height="22.2"/>
		<rect x="333.5" y="266.9" class="st16" width="22.2" height="22.2"/>
		<rect x="355.7" y="266.9" class="st16" width="22.2" height="22.2"/>
		<rect x="377.9" y="266.9" class="st16" width="22.2" height="22.2"/>
		<rect x="400.1" y="266.9" class="st16" width="22.2" height="22.2"/>
		<rect x="422.3" y="266.9" class="st16" width="22.2" height="22.2"/>
		<rect x="444.5" y="266.9" class="st16" width="22.2" height="22.2"/>
		<rect x="466.7" y="266.9" class="st16" width="22.2" height="22.2"/>
		<rect x="488.9" y="266.9" class="st16" width="22.2" height="22.2"/>
		<rect x="511.1" y="266.9" class="st16" width="22.2" height="22.2"/>
		<rect x="533.3" y="266.9" class="st16" width="22.2" height="22.2"/>
		<rect x="0.5" y="289.1" class="st16" width="22.2" height="22.2"/>
		<rect x="22.7" y="289.1" class="st16" width="22.2" height="22.2"/>
		<rect x="44.9" y="289.1" class="st16" width="22.2" height="22.2"/>
		<rect x="67.1" y="289.1" class="st16" width="22.2" height="22.2"/>
		<rect x="89.3" y="289.1" class="st16" width="22.2" height="22.2"/>
		<rect x="111.5" y="289.1" class="st16" width="22.2" height="22.2"/>
		<rect x="133.7" y="289.1" class="st16" width="22.2" height="22.2"/>
		<rect x="155.9" y="289.1" class="st16" width="22.2" height="22.2"/>
		<rect x="178.1" y="289.1" class="st16" width="22.2" height="22.2"/>
		<rect x="200.3" y="289.1" class="st16" width="22.2" height="22.2"/>
		<rect x="222.5" y="289.1" class="st16" width="22.2" height="22.2"/>
		<rect x="244.7" y="289.1" class="st16" width="22.2" height="22.2"/>
		<rect x="266.9" y="289.1" class="st16" width="22.2" height="22.2"/>
		<rect x="289.1" y="289.1" class="st16" width="22.2" height="22.2"/>
		<rect x="311.3" y="289.1" class="st16" width="22.2" height="22.2"/>
		<rect x="333.5" y="289.1" class="st16" width="22.2" height="22.2"/>
		<rect x="355.7" y="289.1" class="st16" width="22.2" height="22.2"/>
		<rect x="377.9" y="289.1" class="st16" width="22.2" height="22.2"/>
		<rect x="400.1" y="289.1" class="st16" width="22.2" height="22.2"/>
		<rect x="422.3" y="289.1" class="st16" width="22.2" height="22.2"/>
		<rect x="444.5" y="289.1" class="st16" width="22.2" height="22.2"/>
		<rect x="466.7" y="289.1" class="st16" width="22.2" height="22.2"/>
		<rect x="488.9" y="289.1" class="st16" width="22.2" height="22.2"/>
		<rect x="511.1" y="289.1" class="st16" width="22.2" height="22.2"/>
		<rect x="533.3" y="289.1" class="st16" width="22.2" height="22.2"/>
		<rect x="0.5" y="311.3" class="st16" width="22.2" height="22.2"/>
		<rect x="22.7" y="311.3" class="st16" width="22.2" height="22.2"/>
		<rect x="44.9" y="311.3" class="st16" width="22.2" height="22.2"/>
		<rect x="67.1" y="311.3" class="st16" width="22.2" height="22.2"/>
		<rect x="89.3" y="311.3" class="st16" width="22.2" height="22.2"/>
		<rect x="111.5" y="311.3" class="st16" width="22.2" height="22.2"/>
		<rect x="133.7" y="311.3" class="st16" width="22.2" height="22.2"/>
		<rect x="155.9" y="311.3" class="st16" width="22.2" height="22.2"/>
		<rect x="178.1" y="311.3" class="st16" width="22.2" height="22.2"/>
		<rect x="200.3" y="311.3" class="st16" width="22.2" height="22.2"/>
		<rect x="222.5" y="311.3" class="st16" width="22.2" height="22.2"/>
		<rect x="244.7" y="311.3" class="st16" width="22.2" height="22.2"/>
		<rect x="266.9" y="311.3" class="st16" width="22.2" height="22.2"/>
		<rect x="289.1" y="311.3" class="st16" width="22.2" height="22.2"/>
		<rect x="311.3" y="311.3" class="st16" width="22.2" height="22.2"/>
		<rect x="333.5" y="311.3" class="st16" width="22.2" height="22.2"/>
		<rect x="355.7" y="311.3" class="st16" width="22.2" height="22.2"/>
		<rect x="377.9" y="311.3" class="st16" width="22.2" height="22.2"/>
		<rect x="400.1" y="311.3" class="st16" width="22.2" height="22.2"/>
		<rect x="422.3" y="311.3" class="st16" width="22.2" height="22.2"/>
		<rect x="444.5" y="311.3" class="st16" width="22.2" height="22.2"/>
		<rect x="466.7" y="311.3" class="st16" width="22.2" height="22.2"/>
		<rect x="488.9" y="311.3" class="st16" width="22.2" height="22.2"/>
		<rect x="511.1" y="311.3" class="st16" width="22.2" height="22.2"/>
		<rect x="533.3" y="311.3" class="st16" width="22.2" height="22.2"/>
		<rect x="0.5" y="333.5" class="st16" width="22.2" height="22.2"/>
		<rect x="22.7" y="333.5" class="st16" width="22.2" height="22.2"/>
		<rect x="44.9" y="333.5" class="st16" width="22.2" height="22.2"/>
		<rect x="67.1" y="333.5" class="st16" width="22.2" height="22.2"/>
		<rect x="89.3" y="333.5" class="st16" width="22.2" height="22.2"/>
		<rect x="111.5" y="333.5" class="st16" width="22.2" height="22.2"/>
		<rect x="133.7" y="333.5" class="st16" width="22.2" height="22.2"/>
		<rect x="155.9" y="333.5" class="st16" width="22.2" height="22.2"/>
		<rect x="178.1" y="333.5" class="st16" width="22.2" height="22.2"/>
		<rect x="200.3" y="333.5" class="st16" width="22.2" height="22.2"/>
		<rect x="222.5" y="333.5" class="st16" width="22.2" height="22.2"/>
		<rect x="244.7" y="333.5" class="st16" width="22.2" height="22.2"/>
		<rect x="266.9" y="333.5" class="st16" width="22.2" height="22.2"/>
		<rect x="289.1" y="333.5" class="st16" width="22.2" height="22.2"/>
		<rect x="311.3" y="333.5" class="st16" width="22.2" height="22.2"/>
		<rect x="333.5" y="333.5" class="st16" width="22.2" height="22.2"/>
		<rect x="355.7" y="333.5" class="st16" width="22.2" height="22.2"/>
		<rect x="377.9" y="333.5" class="st16" width="22.2" height="22.2"/>
		<rect x="400.1" y="333.5" class="st16" width="22.2" height="22.2"/>
		<rect x="422.3" y="333.5" class="st16" width="22.2" height="22.2"/>
		<rect x="444.5" y="333.5" class="st16" width="22.2" height="22.2"/>
		<rect x="466.7" y="333.5" class="st16" width="22.2" height="22.2"/>
		<rect x="488.9" y="333.5" class="st16" width="22.2" height="22.2"/>
		<rect x="511.1" y="333.5" class="st16" width="22.2" height="22.2"/>
		<rect x="533.3" y="333.5" class="st16" width="22.2" height="22.2"/>
		<rect x="0.5" y="355.7" class="st16" width="22.2" height="22.2"/>
		<rect x="22.7" y="355.7" class="st16" width="22.2" height="22.2"/>
		<rect x="44.9" y="355.7" class="st16" width="22.2" height="22.2"/>
		<rect x="67.1" y="355.7" class="st16" width="22.2" height="22.2"/>
		<rect x="89.3" y="355.7" class="st16" width="22.2" height="22.2"/>
		<rect x="111.5" y="355.7" class="st16" width="22.2" height="22.2"/>
		<rect x="133.7" y="355.7" class="st16" width="22.2" height="22.2"/>
		<rect x="155.9" y="355.7" class="st16" width="22.2" height="22.2"/>
		<rect x="178.1" y="355.7" class="st16" width="22.2" height="22.2"/>
		<rect x="200.3" y="355.7" class="st16" width="22.2" height="22.2"/>
		<rect x="222.5" y="355.7" class="st16" width="22.2" height="22.2"/>
		<rect x="244.7" y="355.7" class="st16" width="22.2" height="22.2"/>
		<rect x="266.9" y="355.7" class="st16" width="22.2" height="22.2"/>
		<rect x="289.1" y="355.7" class="st16" width="22.2" height="22.2"/>
		<rect x="311.3" y="355.7" class="st16" width="22.2" height="22.2"/>
		<rect x="333.5" y="355.7" class="st16" width="22.2" height="22.2"/>
		<rect x="355.7" y="355.7" class="st16" width="22.2" height="22.2"/>
		<rect x="377.9" y="355.7" class="st16" width="22.2" height="22.2"/>
		<rect x="400.1" y="355.7" class="st16" width="22.2" height="22.2"/>
		<rect x="422.3" y="355.7" class="st16" width="22.2" height="22.2"/>
		<rect x="444.5" y="355.7" class="st16" width="22.2" height="22.2"/>
		<rect x="466.7" y="355.7" class="st16" width="22.2" height="22.2"/>
		<rect x="488.9" y="355.7" class="st16" width="22.2" height="22.2"/>
		<rect x="511.1" y="355.7" class="st16" width="22.2" height="22.2"/>
		<rect x="533.3" y="355.7" class="st16" width="22.2" height="22.2"/>
		<rect x="0.5" y="377.9" class="st16" width="22.2" height="22.2"/>
		<rect x="22.7" y="377.9" class="st16" width="22.2" height="22.2"/>
		<rect x="44.9" y="377.9" class="st16" width="22.2" height="22.2"/>
		<rect x="67.1" y="377.9" class="st16" width="22.2" height="22.2"/>
		<rect x="89.3" y="377.9" class="st16" width="22.2" height="22.2"/>
		<rect x="111.5" y="377.9" class="st16" width="22.2" height="22.2"/>
		<rect x="133.7" y="377.9" class="st16" width="22.2" height="22.2"/>
		<rect x="155.9" y="377.9" class="st16" width="22.2" height="22.2"/>
		<rect x="178.1" y="377.9" class="st16" width="22.2" height="22.2"/>
		<rect x="200.3" y="377.9" class="st16" width="22.2" height="22.2"/>
		<rect x="222.5" y="377.9" class="st16" width="22.2" height="22.2"/>
		<rect x="244.7" y="377.9" class="st16" width="22.2" height="22.2"/>
		<rect x="266.9" y="377.9" class="st16" width="22.2" height="22.2"/>
		<rect x="289.1" y="377.9" class="st16" width="22.2" height="22.2"/>
		<rect x="311.3" y="377.9" class="st16" width="22.2" height="22.2"/>
		<rect x="333.5" y="377.9" class="st16" width="22.2" height="22.2"/>
		<rect x="355.7" y="377.9" class="st16" width="22.2" height="22.2"/>
		<rect x="377.9" y="377.9" class="st16" width="22.2" height="22.2"/>
		<rect x="400.1" y="377.9" class="st16" width="22.2" height="22.2"/>
		<rect x="422.3" y="377.9" class="st16" width="22.2" height="22.2"/>
		<rect x="444.5" y="377.9" class="st16" width="22.2" height="22.2"/>
		<rect x="466.7" y="377.9" class="st16" width="22.2" height="22.2"/>
		<rect x="488.9" y="377.9" class="st16" width="22.2" height="22.2"/>
		<rect x="511.1" y="377.9" class="st16" width="22.2" height="22.2"/>
		<rect x="533.3" y="377.9" class="st16" width="22.2" height="22.2"/>
		<rect x="0.5" y="400.1" class="st16" width="22.2" height="22.2"/>
		<rect x="22.7" y="400.1" class="st16" width="22.2" height="22.2"/>
		<rect x="44.9" y="400.1" class="st16" width="22.2" height="22.2"/>
		<rect x="67.1" y="400.1" class="st16" width="22.2" height="22.2"/>
		<rect x="89.3" y="400.1" class="st16" width="22.2" height="22.2"/>
		<rect x="111.5" y="400.1" class="st16" width="22.2" height="22.2"/>
		<rect x="133.7" y="400.1" class="st16" width="22.2" height="22.2"/>
		<rect x="155.9" y="400.1" class="st16" width="22.2" height="22.2"/>
		<rect x="178.1" y="400.1" class="st16" width="22.2" height="22.2"/>
		<rect x="200.3" y="400.1" class="st16" width="22.2" height="22.2"/>
		<rect x="222.5" y="400.1" class="st16" width="22.2" height="22.2"/>
		<rect x="244.7" y="400.1" class="st16" width="22.2" height="22.2"/>
		<rect x="266.9" y="400.1" class="st16" width="22.2" height="22.2"/>
		<rect x="289.1" y="400.1" class="st16" width="22.2" height="22.2"/>
		<rect x="311.3" y="400.1" class="st16" width="22.2" height="22.2"/>
		<rect x="333.5" y="400.1" class="st16" width="22.2" height="22.2"/>
		<rect x="355.7" y="400.1" class="st16" width="22.2" height="22.2"/>
		<rect x="377.9" y="400.1" class="st16" width="22.2" height="22.2"/>
		<rect x="400.1" y="400.1" class="st16" width="22.2" height="22.2"/>
		<rect x="422.3" y="400.1" class="st16" width="22.2" height="22.2"/>
		<rect x="444.5" y="400.1" class="st16" width="22.2" height="22.2"/>
		<rect x="466.7" y="400.1" class="st16" width="22.2" height="22.2"/>
		<rect x="488.9" y="400.1" class="st16" width="22.2" height="22.2"/>
		<rect x="511.1" y="400.1" class="st16" width="22.2" height="22.2"/>
		<rect x="533.3" y="400.1" class="st16" width="22.2" height="22.2"/>
		<rect x="0.5" y="422.3" class="st16" width="22.2" height="22.2"/>
		<rect x="22.7" y="422.3" class="st16" width="22.2" height="22.2"/>
		<rect x="44.9" y="422.3" class="st16" width="22.2" height="22.2"/>
		<rect x="67.1" y="422.3" class="st16" width="22.2" height="22.2"/>
		<rect x="89.3" y="422.3" class="st16" width="22.2" height="22.2"/>
		<rect x="111.5" y="422.3" class="st16" width="22.2" height="22.2"/>
		<rect x="133.7" y="422.3" class="st16" width="22.2" height="22.2"/>
		<rect x="155.9" y="422.3" class="st16" width="22.2" height="22.2"/>
		<rect x="178.1" y="422.3" class="st16" width="22.2" height="22.2"/>
		<rect x="200.3" y="422.3" class="st16" width="22.2" height="22.2"/>
		<rect x="222.5" y="422.3" class="st16" width="22.2" height="22.2"/>
		<rect x="244.7" y="422.3" class="st16" width="22.2" height="22.2"/>
		<rect x="266.9" y="422.3" class="st16" width="22.2" height="22.2"/>
		<rect x="289.1" y="422.3" class="st16" width="22.2" height="22.2"/>
		<rect x="311.3" y="422.3" class="st16" width="22.2" height="22.2"/>
		<rect x="333.5" y="422.3" class="st16" width="22.2" height="22.2"/>
		<rect x="355.7" y="422.3" class="st16" width="22.2" height="22.2"/>
		<rect x="377.9" y="422.3" class="st16" width="22.2" height="22.2"/>
		<rect x="400.1" y="422.3" class="st16" width="22.2" height="22.2"/>
		<rect x="422.3" y="422.3" class="st16" width="22.2" height="22.2"/>
		<rect x="444.5" y="422.3" class="st16" width="22.2" height="22.2"/>
		<rect x="466.7" y="422.3" class="st16" width="22.2" height="22.2"/>
		<rect x="488.9" y="422.3" class="st16" width="22.2" height="22.2"/>
		<rect x="511.1" y="422.3" class="st16" width="22.2" height="22.2"/>
		<rect x="533.3" y="422.3" class="st16" width="22.2" height="22.2"/>
		<rect x="0.5" y="444.5" class="st16" width="22.2" height="22.2"/>
		<rect x="22.7" y="444.5" class="st16" width="22.2" height="22.2"/>
		<rect x="44.9" y="444.5" class="st16" width="22.2" height="22.2"/>
		<rect x="67.1" y="444.5" class="st16" width="22.2" height="22.2"/>
		<rect x="89.3" y="444.5" class="st16" width="22.2" height="22.2"/>
		<rect x="111.5" y="444.5" class="st16" width="22.2" height="22.2"/>
		<rect x="133.7" y="444.5" class="st16" width="22.2" height="22.2"/>
		<rect x="155.9" y="444.5" class="st16" width="22.2" height="22.2"/>
		<rect x="178.1" y="444.5" class="st16" width="22.2" height="22.2"/>
		<rect x="200.3" y="444.5" class="st16" width="22.2" height="22.2"/>
		<rect x="222.5" y="444.5" class="st16" width="22.2" height="22.2"/>
		<rect x="244.7" y="444.5" class="st16" width="22.2" height="22.2"/>
		<rect x="266.9" y="444.5" class="st16" width="22.2" height="22.2"/>
		<rect x="289.1" y="444.5" class="st16" width="22.2" height="22.2"/>
		<rect x="311.3" y="444.5" class="st16" width="22.2" height="22.2"/>
		<rect x="333.5" y="444.5" class="st16" width="22.2" height="22.2"/>
		<rect x="355.7" y="444.5" class="st16" width="22.2" height="22.2"/>
		<rect x="377.9" y="444.5" class="st16" width="22.2" height="22.2"/>
		<rect x="400.1" y="444.5" class="st16" width="22.2" height="22.2"/>
		<rect x="422.3" y="444.5" class="st16" width="22.2" height="22.2"/>
		<rect x="444.5" y="444.5" class="st16" width="22.2" height="22.2"/>
		<rect x="466.7" y="444.5" class="st16" width="22.2" height="22.2"/>
		<rect x="488.9" y="444.5" class="st16" width="22.2" height="22.2"/>
		<rect x="511.1" y="444.5" class="st16" width="22.2" height="22.2"/>
		<rect x="533.3" y="444.5" class="st16" width="22.2" height="22.2"/>
		<rect x="0.5" y="466.7" class="st16" width="22.2" height="22.2"/>
		<rect x="22.7" y="466.7" class="st16" width="22.2" height="22.2"/>
		<rect x="44.9" y="466.7" class="st16" width="22.2" height="22.2"/>
		<rect x="67.1" y="466.7" class="st16" width="22.2" height="22.2"/>
		<rect x="89.3" y="466.7" class="st16" width="22.2" height="22.2"/>
		<rect x="111.5" y="466.7" class="st16" width="22.2" height="22.2"/>
		<rect x="133.7" y="466.7" class="st16" width="22.2" height="22.2"/>
		<rect x="155.9" y="466.7" class="st16" width="22.2" height="22.2"/>
		<rect x="178.1" y="466.7" class="st16" width="22.2" height="22.2"/>
		<rect x="200.3" y="466.7" class="st16" width="22.2" height="22.2"/>
		<rect x="222.5" y="466.7" class="st16" width="22.2" height="22.2"/>
		<rect x="244.7" y="466.7" class="st16" width="22.2" height="22.2"/>
		<rect x="266.9" y="466.7" class="st16" width="22.2" height="22.2"/>
		<rect x="289.1" y="466.7" class="st16" width="22.2" height="22.2"/>
		<rect x="311.3" y="466.7" class="st16" width="22.2" height="22.2"/>
		<rect x="333.5" y="466.7" class="st16" width="22.2" height="22.2"/>
		<rect x="355.7" y="466.7" class="st16" width="22.2" height="22.2"/>
		<rect x="377.9" y="466.7" class="st16" width="22.2" height="22.2"/>
		<rect x="400.1" y="466.7" class="st16" width="22.2" height="22.2"/>
		<rect x="422.3" y="466.7" class="st16" width="22.2" height="22.2"/>
		<rect x="444.5" y="466.7" class="st16" width="22.2" height="22.2"/>
		<rect x="466.7" y="466.7" class="st16" width="22.2" height="22.2"/>
		<rect x="488.9" y="466.7" class="st16" width="22.2" height="22.2"/>
		<rect x="511.1" y="466.7" class="st16" width="22.2" height="22.2"/>
		<rect x="533.3" y="466.7" class="st16" width="22.2" height="22.2"/>
		<rect x="0.5" y="488.9" class="st16" width="22.2" height="22.2"/>
		<rect x="22.7" y="488.9" class="st16" width="22.2" height="22.2"/>
		<rect x="44.9" y="488.9" class="st16" width="22.2" height="22.2"/>
		<rect x="67.1" y="488.9" class="st16" width="22.2" height="22.2"/>
		<rect x="89.3" y="488.9" class="st16" width="22.2" height="22.2"/>
		<rect x="111.5" y="488.9" class="st16" width="22.2" height="22.2"/>
		<rect x="133.7" y="488.9" class="st16" width="22.2" height="22.2"/>
		<rect x="155.9" y="488.9" class="st16" width="22.2" height="22.2"/>
		<rect x="178.1" y="488.9" class="st16" width="22.2" height="22.2"/>
		<rect x="200.3" y="488.9" class="st16" width="22.2" height="22.2"/>
		<rect x="222.5" y="488.9" class="st16" width="22.2" height="22.2"/>
		<rect x="244.7" y="488.9" class="st16" width="22.2" height="22.2"/>
		<rect x="266.9" y="488.9" class="st16" width="22.2" height="22.2"/>
		<rect x="289.1" y="488.9" class="st16" width="22.2" height="22.2"/>
		<rect x="311.3" y="488.9" class="st16" width="22.2" height="22.2"/>
		<rect x="333.5" y="488.9" class="st16" width="22.2" height="22.2"/>
		<rect x="355.7" y="488.9" class="st16" width="22.2" height="22.2"/>
		<rect x="377.9" y="488.9" class="st16" width="22.2" height="22.2"/>
		<rect x="400.1" y="488.9" class="st16" width="22.2" height="22.2"/>
		<rect x="422.3" y="488.9" class="st16" width="22.2" height="22.2"/>
		<rect x="444.5" y="488.9" class="st16" width="22.2" height="22.2"/>
		<rect x="466.7" y="488.9" class="st16" width="22.2" height="22.2"/>
		<rect x="488.9" y="488.9" class="st16" width="22.2" height="22.2"/>
		<rect x="511.1" y="488.9" class="st16" width="22.2" height="22.2"/>
		<rect x="533.3" y="488.9" class="st16" width="22.2" height="22.2"/>
		<rect x="0.5" y="511.1" class="st16" width="22.2" height="22.2"/>
		<rect x="22.7" y="511.1" class="st16" width="22.2" height="22.2"/>
		<rect x="44.9" y="511.1" class="st16" width="22.2" height="22.2"/>
		<rect x="67.1" y="511.1" class="st16" width="22.2" height="22.2"/>
		<rect x="89.3" y="511.1" class="st16" width="22.2" height="22.2"/>
		<rect x="111.5" y="511.1" class="st16" width="22.2" height="22.2"/>
		<rect x="133.7" y="511.1" class="st16" width="22.2" height="22.2"/>
		<rect x="155.9" y="511.1" class="st16" width="22.2" height="22.2"/>
		<rect x="178.1" y="511.1" class="st16" width="22.2" height="22.2"/>
		<rect x="200.3" y="511.1" class="st16" width="22.2" height="22.2"/>
		<rect x="222.5" y="511.1" class="st16" width="22.2" height="22.2"/>
		<rect x="244.7" y="511.1" class="st16" width="22.2" height="22.2"/>
		<rect x="266.9" y="511.1" class="st16" width="22.2" height="22.2"/>
		<rect x="289.1" y="511.1" class="st16" width="22.2" height="22.2"/>
		<rect x="311.3" y="511.1" class="st16" width="22.2" height="22.2"/>
		<rect x="333.5" y="511.1" class="st16" width="22.2" height="22.2"/>
		<rect x="355.7" y="511.1" class="st16" width="22.2" height="22.2"/>
		<rect x="377.9" y="511.1" class="st16" width="22.2" height="22.2"/>
		<rect x="400.1" y="511.1" class="st16" width="22.2" height="22.2"/>
		<rect x="422.3" y="511.1" class="st16" width="22.2" height="22.2"/>
		<rect x="444.5" y="511.1" class="st16" width="22.2" height="22.2"/>
		<rect x="466.7" y="511.1" class="st16" width="22.2" height="22.2"/>
		<rect x="488.9" y="511.1" class="st16" width="22.2" height="22.2"/>
		<rect x="511.1" y="511.1" class="st16" width="22.2" height="22.2"/>
		<rect x="533.3" y="511.1" class="st16" width="22.2" height="22.2"/>
		<rect x="0.5" y="533.3" class="st16" width="22.2" height="22.2"/>
		<rect x="22.7" y="533.3" class="st16" width="22.2" height="22.2"/>
		<rect x="44.9" y="533.3" class="st16" width="22.2" height="22.2"/>
		<rect x="67.1" y="533.3" class="st16" width="22.2" height="22.2"/>
		<rect x="89.3" y="533.3" class="st16" width="22.2" height="22.2"/>
		<rect x="111.5" y="533.3" class="st16" width="22.2" height="22.2"/>
		<rect x="133.7" y="533.3" class="st16" width="22.2" height="22.2"/>
		<rect x="155.9" y="533.3" class="st16" width="22.2" height="22.2"/>
		<rect x="178.1" y="533.3" class="st16" width="22.2" height="22.2"/>
		<rect x="200.3" y="533.3" class="st16" width="22.2" height="22.2"/>
		<rect x="222.5" y="533.3" class="st16" width="22.2" height="22.2"/>
		<rect x="244.7" y="533.3" class="st16" width="22.2" height="22.2"/>
		<rect x="266.9" y="533.3" class="st16" width="22.2" height="22.2"/>
		<rect x="289.1" y="533.3" class="st16" width="22.2" height="22.2"/>
		<rect x="311.3" y="533.3" class="st16" width="22.2" height="22.2"/>
		<rect x="333.5" y="533.3" class="st16" width="22.2" height="22.2"/>
		<rect x="355.7" y="533.3" class="st16" width="22.2" height="22.2"/>
		<rect x="377.9" y="533.3" class="st16" width="22.2" height="22.2"/>
		<rect x="400.1" y="533.3" class="st16" width="22.2" height="22.2"/>
		<rect x="422.3" y="533.3" class="st16" width="22.2" height="22.2"/>
		<rect x="444.5" y="533.3" class="st16" width="22.2" height="22.2"/>
		<rect x="466.7" y="533.3" class="st16" width="22.2" height="22.2"/>
		<rect x="488.9" y="533.3" class="st16" width="22.2" height="22.2"/>
		<rect x="511.1" y="533.3" class="st16" width="22.2" height="22.2"/>
		<rect x="533.3" y="533.3" class="st16" width="22.2" height="22.2"/>
	</g>
</g>
</svg>
